<mxfile host="app.diagrams.net" modified="2023-08-08T01:21:29.189Z" agent="Mozilla/5.0 (Macintosh; Intel Mac OS X 10_15_7) AppleWebKit/537.36 (KHTML, like Gecko) Chrome/115.0.0.0 Safari/537.36" version="21.6.6" etag="6rjBF2u-HrZ3-ITDviNB" type="github">
  <diagram name="Page-1" id="ux2wLXKpJcKojUZyY-NW">
    <mxGraphModel>
      <root>
        <mxCell id="0" />
        <mxCell id="1" parent="0" />
      </root>
    </mxGraphModel>
  </diagram>
</mxfile>
